<svg width="298" height="65" viewBox="0 0 298 65" fill="none" xmlns="http://www.w3.org/2000/svg">
<rect width="298" height="65" rx="32.5" fill="url(#paint0_linear_1_82)"/>
<rect x="8" y="8" width="282" height="49" rx="24.5" fill="url(#paint1_linear_1_82)"/>
<path d="M87.4453 29.0352V29.9141C87.4453 31.2031 87.2734 32.3633 86.9297 33.3945C86.5859 34.418 86.0977 35.2891 85.4648 36.0078C84.832 36.7266 84.0781 37.2773 83.2031 37.6602C82.3281 38.043 81.3555 38.2344 80.2852 38.2344C79.2305 38.2344 78.2617 38.043 77.3789 37.6602C76.5039 37.2773 75.7461 36.7266 75.1055 36.0078C74.4648 35.2891 73.9688 34.418 73.6172 33.3945C73.2656 32.3633 73.0898 31.2031 73.0898 29.9141V29.0352C73.0898 27.7383 73.2656 26.5781 73.6172 25.5547C73.9688 24.5312 74.4609 23.6602 75.0938 22.9414C75.7266 22.2148 76.4805 21.6602 77.3555 21.2773C78.2383 20.8945 79.207 20.7031 80.2617 20.7031C81.332 20.7031 82.3047 20.8945 83.1797 21.2773C84.0547 21.6602 84.8086 22.2148 85.4414 22.9414C86.082 23.6602 86.5742 24.5312 86.918 25.5547C87.2695 26.5781 87.4453 27.7383 87.4453 29.0352ZM84.1875 29.9141V29.0117C84.1875 28.082 84.1016 27.2656 83.9297 26.5625C83.7578 25.8516 83.5039 25.2539 83.168 24.7695C82.832 24.2852 82.418 23.9219 81.9258 23.6797C81.4336 23.4297 80.8789 23.3047 80.2617 23.3047C79.6367 23.3047 79.082 23.4297 78.5977 23.6797C78.1211 23.9219 77.7148 24.2852 77.3789 24.7695C77.043 25.2539 76.7852 25.8516 76.6055 26.5625C76.4336 27.2656 76.3477 28.082 76.3477 29.0117V29.9141C76.3477 30.8359 76.4336 31.6523 76.6055 32.3633C76.7852 33.0742 77.043 33.6758 77.3789 34.168C77.7227 34.6523 78.1367 35.0195 78.6211 35.2695C79.1055 35.5195 79.6602 35.6445 80.2852 35.6445C80.9102 35.6445 81.4648 35.5195 81.9492 35.2695C82.4336 35.0195 82.8398 34.6523 83.168 34.168C83.5039 33.6758 83.7578 33.0742 83.9297 32.3633C84.1016 31.6523 84.1875 30.8359 84.1875 29.9141ZM95.1445 35.7969C95.582 35.7969 95.9727 35.7109 96.3164 35.5391C96.6602 35.3672 96.9336 35.125 97.1367 34.8125C97.3477 34.5 97.4609 34.1367 97.4766 33.7227H100.395C100.379 34.582 100.137 35.3516 99.668 36.0312C99.1992 36.7109 98.5742 37.25 97.793 37.6484C97.0195 38.0391 96.1523 38.2344 95.1914 38.2344C94.2148 38.2344 93.3633 38.0703 92.6367 37.7422C91.9102 37.4141 91.3047 36.957 90.8203 36.3711C90.3438 35.7852 89.9844 35.1055 89.7422 34.332C89.5078 33.5586 89.3906 32.7305 89.3906 31.8477V31.4727C89.3906 30.5898 89.5078 29.7617 89.7422 28.9883C89.9844 28.2148 90.3438 27.5352 90.8203 26.9492C91.3047 26.3633 91.9102 25.9062 92.6367 25.5781C93.3633 25.25 94.2109 25.0859 95.1797 25.0859C96.2031 25.0859 97.1016 25.2852 97.875 25.6836C98.6562 26.082 99.2656 26.6445 99.7031 27.3711C100.148 28.0977 100.379 28.9531 100.395 29.9375H97.4766C97.4609 29.4844 97.3594 29.0781 97.1719 28.7188C96.9844 28.3594 96.7188 28.0703 96.375 27.8516C96.0312 27.6328 95.6133 27.5234 95.1211 27.5234C94.5977 27.5234 94.1602 27.6328 93.8086 27.8516C93.4648 28.0703 93.1953 28.3711 93 28.7539C92.8125 29.1289 92.6797 29.5508 92.6016 30.0195C92.5312 30.4805 92.4961 30.9648 92.4961 31.4727V31.8477C92.4961 32.3633 92.5312 32.8555 92.6016 33.3242C92.6797 33.793 92.8125 34.2148 93 34.5898C93.1953 34.957 93.4648 35.25 93.8086 35.4688C94.1602 35.6875 94.6055 35.7969 95.1445 35.7969ZM108.609 25.3203V38H105.504V25.3203H108.609ZM112.734 25.3203V27.7344H101.449V25.3203H112.734ZM121.348 35.3047V29.457C121.348 29.0273 121.273 28.6562 121.125 28.3438C120.977 28.0312 120.75 27.7891 120.445 27.6172C120.141 27.4453 119.754 27.3594 119.285 27.3594C118.871 27.3594 118.508 27.4297 118.195 27.5703C117.891 27.7109 117.656 27.9102 117.492 28.168C117.328 28.418 117.246 28.707 117.246 29.0352H114.141C114.141 28.5117 114.266 28.0156 114.516 27.5469C114.766 27.0703 115.121 26.6484 115.582 26.2812C116.051 25.9062 116.609 25.6133 117.258 25.4023C117.914 25.1914 118.648 25.0859 119.461 25.0859C120.422 25.0859 121.277 25.25 122.027 25.5781C122.785 25.8984 123.379 26.3828 123.809 27.0312C124.246 27.6797 124.465 28.4961 124.465 29.4805V35.0117C124.465 35.6445 124.504 36.1875 124.582 36.6406C124.668 37.0859 124.793 37.4727 124.957 37.8008V38H121.805C121.656 37.6797 121.543 37.2734 121.465 36.7812C121.387 36.2812 121.348 35.7891 121.348 35.3047ZM121.781 30.2773L121.805 32.1172H119.848C119.363 32.1172 118.938 32.168 118.57 32.2695C118.203 32.3633 117.902 32.5039 117.668 32.6914C117.434 32.8711 117.258 33.0898 117.141 33.3477C117.023 33.5977 116.965 33.8828 116.965 34.2031C116.965 34.5156 117.035 34.7969 117.176 35.0469C117.324 35.2969 117.535 35.4961 117.809 35.6445C118.09 35.7852 118.418 35.8555 118.793 35.8555C119.34 35.8555 119.816 35.7461 120.223 35.5273C120.629 35.3008 120.945 35.0273 121.172 34.707C121.398 34.3867 121.52 34.082 121.535 33.793L122.426 35.1289C122.316 35.4492 122.152 35.7891 121.934 36.1484C121.715 36.5078 121.434 36.8438 121.09 37.1562C120.746 37.4688 120.332 37.7266 119.848 37.9297C119.363 38.1328 118.801 38.2344 118.16 38.2344C117.34 38.2344 116.605 38.0703 115.957 37.7422C115.309 37.4141 114.797 36.9648 114.422 36.3945C114.047 35.8242 113.859 35.1758 113.859 34.4492C113.859 33.7773 113.984 33.1836 114.234 32.668C114.484 32.1523 114.855 31.7188 115.348 31.3672C115.84 31.0078 116.449 30.7383 117.176 30.5586C117.91 30.3711 118.75 30.2773 119.695 30.2773H121.781ZM133.488 32.6328H129.469L129.445 30.5352H132.75C133.242 30.5352 133.645 30.4844 133.957 30.3828C134.27 30.2812 134.5 30.1289 134.648 29.9258C134.805 29.7227 134.883 29.4766 134.883 29.1875C134.883 28.9375 134.836 28.7227 134.742 28.543C134.648 28.3555 134.508 28.2031 134.32 28.0859C134.141 27.9688 133.91 27.8828 133.629 27.8281C133.355 27.7656 133.035 27.7344 132.668 27.7344H130.57V38H127.465V25.3203H132.668C133.488 25.3203 134.227 25.3945 134.883 25.543C135.539 25.6836 136.098 25.8984 136.559 26.1875C137.02 26.4766 137.371 26.8438 137.613 27.2891C137.863 27.7266 137.988 28.2422 137.988 28.8359C137.988 29.2266 137.902 29.5938 137.73 29.9375C137.559 30.2812 137.305 30.5859 136.969 30.8516C136.633 31.1172 136.219 31.3359 135.727 31.5078C135.234 31.6719 134.672 31.7734 134.039 31.8125L133.488 32.6328ZM133.488 38H128.637L129.785 35.5859H133.488C133.941 35.5859 134.316 35.5312 134.613 35.4219C134.91 35.3047 135.129 35.1367 135.27 34.918C135.418 34.6992 135.492 34.4336 135.492 34.1211C135.492 33.8164 135.422 33.5547 135.281 33.3359C135.148 33.1094 134.934 32.9375 134.637 32.8203C134.348 32.6953 133.965 32.6328 133.488 32.6328H130.289L130.312 30.5352H134.027L134.848 31.3672C135.691 31.4219 136.391 31.5938 136.945 31.8828C137.5 32.1641 137.914 32.5234 138.188 32.9609C138.461 33.3906 138.598 33.8633 138.598 34.3789C138.598 34.9805 138.484 35.5078 138.258 35.9609C138.031 36.4141 137.699 36.793 137.262 37.0977C136.824 37.3945 136.289 37.6211 135.656 37.7773C135.023 37.9258 134.301 38 133.488 38ZM143.977 33.582L148.594 25.3203H151.699V38H148.594V29.7266L143.977 38H140.871V25.3203H143.977V33.582ZM160.664 25.3203V38H157.559V25.3203H160.664ZM164.789 25.3203V27.7344H153.504V25.3203H164.789ZM168.809 29.2227H172.512C173.637 29.2227 174.594 29.4102 175.383 29.7852C176.18 30.1523 176.785 30.668 177.199 31.332C177.621 31.9883 177.832 32.75 177.832 33.6172C177.832 34.2422 177.711 34.8242 177.469 35.3633C177.234 35.8945 176.891 36.3594 176.438 36.7578C175.984 37.1484 175.426 37.4531 174.762 37.6719C174.105 37.8906 173.355 38 172.512 38H166.816V25.3203H169.922V35.5742H172.512C173.051 35.5742 173.48 35.4844 173.801 35.3047C174.129 35.1172 174.363 34.8789 174.504 34.5898C174.652 34.293 174.727 33.9766 174.727 33.6406C174.727 33.2969 174.652 32.9766 174.504 32.6797C174.363 32.375 174.129 32.1289 173.801 31.9414C173.48 31.7539 173.051 31.6602 172.512 31.6602H168.809V29.2227ZM191.332 31.9531H188.859V30.4766H190.746C191.207 30.4766 191.574 30.4141 191.848 30.2891C192.129 30.1641 192.328 29.9883 192.445 29.7617C192.57 29.5352 192.633 29.2734 192.633 28.9766C192.633 28.7109 192.574 28.4609 192.457 28.2266C192.34 27.9844 192.145 27.7891 191.871 27.6406C191.598 27.4844 191.219 27.4062 190.734 27.4062C190.336 27.4062 189.98 27.4688 189.668 27.5938C189.355 27.7188 189.109 27.8945 188.93 28.1211C188.75 28.3477 188.66 28.6172 188.66 28.9297H185.555C185.555 28.1328 185.781 27.4492 186.234 26.8789C186.695 26.3086 187.309 25.8711 188.074 25.5664C188.84 25.2539 189.68 25.0977 190.594 25.0977C191.383 25.0977 192.094 25.1797 192.727 25.3438C193.359 25.5 193.898 25.7344 194.344 26.0469C194.789 26.3594 195.133 26.7461 195.375 27.207C195.617 27.6602 195.738 28.1875 195.738 28.7891C195.738 29.2188 195.637 29.625 195.434 30.0078C195.23 30.3906 194.938 30.7305 194.555 31.0273C194.172 31.3164 193.707 31.543 193.16 31.707C192.621 31.8711 192.012 31.9531 191.332 31.9531ZM188.859 31.1094H191.332C192.09 31.1094 192.754 31.1836 193.324 31.332C193.902 31.4727 194.387 31.6836 194.777 31.9648C195.168 32.2461 195.461 32.5938 195.656 33.0078C195.859 33.4141 195.961 33.8828 195.961 34.4141C195.961 35.0156 195.828 35.5547 195.562 36.0312C195.305 36.5 194.938 36.8984 194.461 37.2266C193.984 37.5547 193.418 37.8047 192.762 37.9766C192.105 38.1484 191.383 38.2344 190.594 38.2344C189.742 38.2344 188.914 38.0938 188.109 37.8125C187.312 37.5312 186.652 37.0977 186.129 36.5117C185.613 35.9258 185.355 35.1719 185.355 34.25H188.461C188.461 34.5469 188.551 34.8242 188.73 35.082C188.91 35.3398 189.168 35.5469 189.504 35.7031C189.848 35.8516 190.262 35.9258 190.746 35.9258C191.238 35.9258 191.641 35.8477 191.953 35.6914C192.266 35.5352 192.492 35.3281 192.633 35.0703C192.781 34.8047 192.855 34.5273 192.855 34.2383C192.855 33.8398 192.777 33.5195 192.621 33.2773C192.473 33.0273 192.238 32.8438 191.918 32.7266C191.605 32.6094 191.215 32.5508 190.746 32.5508H188.859V31.1094ZM205.184 35.3047V29.457C205.184 29.0273 205.109 28.6562 204.961 28.3438C204.812 28.0312 204.586 27.7891 204.281 27.6172C203.977 27.4453 203.59 27.3594 203.121 27.3594C202.707 27.3594 202.344 27.4297 202.031 27.5703C201.727 27.7109 201.492 27.9102 201.328 28.168C201.164 28.418 201.082 28.707 201.082 29.0352H197.977C197.977 28.5117 198.102 28.0156 198.352 27.5469C198.602 27.0703 198.957 26.6484 199.418 26.2812C199.887 25.9062 200.445 25.6133 201.094 25.4023C201.75 25.1914 202.484 25.0859 203.297 25.0859C204.258 25.0859 205.113 25.25 205.863 25.5781C206.621 25.8984 207.215 26.3828 207.645 27.0312C208.082 27.6797 208.301 28.4961 208.301 29.4805V35.0117C208.301 35.6445 208.34 36.1875 208.418 36.6406C208.504 37.0859 208.629 37.4727 208.793 37.8008V38H205.641C205.492 37.6797 205.379 37.2734 205.301 36.7812C205.223 36.2812 205.184 35.7891 205.184 35.3047ZM205.617 30.2773L205.641 32.1172H203.684C203.199 32.1172 202.773 32.168 202.406 32.2695C202.039 32.3633 201.738 32.5039 201.504 32.6914C201.27 32.8711 201.094 33.0898 200.977 33.3477C200.859 33.5977 200.801 33.8828 200.801 34.2031C200.801 34.5156 200.871 34.7969 201.012 35.0469C201.16 35.2969 201.371 35.4961 201.645 35.6445C201.926 35.7852 202.254 35.8555 202.629 35.8555C203.176 35.8555 203.652 35.7461 204.059 35.5273C204.465 35.3008 204.781 35.0273 205.008 34.707C205.234 34.3867 205.355 34.082 205.371 33.793L206.262 35.1289C206.152 35.4492 205.988 35.7891 205.77 36.1484C205.551 36.5078 205.27 36.8438 204.926 37.1562C204.582 37.4688 204.168 37.7266 203.684 37.9297C203.199 38.1328 202.637 38.2344 201.996 38.2344C201.176 38.2344 200.441 38.0703 199.793 37.7422C199.145 37.4141 198.633 36.9648 198.258 36.3945C197.883 35.8242 197.695 35.1758 197.695 34.4492C197.695 33.7773 197.82 33.1836 198.07 32.668C198.32 32.1523 198.691 31.7188 199.184 31.3672C199.676 31.0078 200.285 30.7383 201.012 30.5586C201.746 30.3711 202.586 30.2773 203.531 30.2773H205.617ZM213.785 31.7422H216.961L213.398 38H210.223L213.785 31.7422ZM215.941 25.3203H221.449V38H218.355V27.7344H215.941C215.449 27.7344 215.039 27.8242 214.711 28.0039C214.391 28.1836 214.152 28.4141 213.996 28.6953C213.84 28.9688 213.762 29.25 213.762 29.5391C213.762 29.8203 213.836 30.0938 213.984 30.3594C214.133 30.625 214.359 30.8438 214.664 31.0156C214.977 31.1875 215.367 31.2734 215.836 31.2734H219.457V33.4531H215.836C215.031 33.4531 214.309 33.3555 213.668 33.1602C213.035 32.957 212.492 32.6758 212.039 32.3164C211.594 31.957 211.254 31.5352 211.02 31.0508C210.785 30.5586 210.668 30.0234 210.668 29.4453C210.668 28.8516 210.785 28.3047 211.02 27.8047C211.262 27.3047 211.609 26.8672 212.062 26.4922C212.523 26.1172 213.078 25.8281 213.727 25.625C214.383 25.4219 215.121 25.3203 215.941 25.3203ZM230.707 32.6328H226.688L226.664 30.5352H229.969C230.461 30.5352 230.863 30.4844 231.176 30.3828C231.488 30.2812 231.719 30.1289 231.867 29.9258C232.023 29.7227 232.102 29.4766 232.102 29.1875C232.102 28.9375 232.055 28.7227 231.961 28.543C231.867 28.3555 231.727 28.2031 231.539 28.0859C231.359 27.9688 231.129 27.8828 230.848 27.8281C230.574 27.7656 230.254 27.7344 229.887 27.7344H227.789V38H224.684V25.3203H229.887C230.707 25.3203 231.445 25.3945 232.102 25.543C232.758 25.6836 233.316 25.8984 233.777 26.1875C234.238 26.4766 234.59 26.8438 234.832 27.2891C235.082 27.7266 235.207 28.2422 235.207 28.8359C235.207 29.2266 235.121 29.5938 234.949 29.9375C234.777 30.2812 234.523 30.5859 234.188 30.8516C233.852 31.1172 233.438 31.3359 232.945 31.5078C232.453 31.6719 231.891 31.7734 231.258 31.8125L230.707 32.6328ZM230.707 38H225.855L227.004 35.5859H230.707C231.16 35.5859 231.535 35.5312 231.832 35.4219C232.129 35.3047 232.348 35.1367 232.488 34.918C232.637 34.6992 232.711 34.4336 232.711 34.1211C232.711 33.8164 232.641 33.5547 232.5 33.3359C232.367 33.1094 232.152 32.9375 231.855 32.8203C231.566 32.6953 231.184 32.6328 230.707 32.6328H227.508L227.531 30.5352H231.246L232.066 31.3672C232.91 31.4219 233.609 31.5938 234.164 31.8828C234.719 32.1641 235.133 32.5234 235.406 32.9609C235.68 33.3906 235.816 33.8633 235.816 34.3789C235.816 34.9805 235.703 35.5078 235.477 35.9609C235.25 36.4141 234.918 36.793 234.48 37.0977C234.043 37.3945 233.508 37.6211 232.875 37.7773C232.242 37.9258 231.52 38 230.707 38ZM241.371 25.3203V38H238.277V25.3203H241.371ZM249.633 25.3203L244.043 33.1016H240.75L240.363 30.2656H242.648L245.73 25.3203H249.633ZM245.918 38L242.449 32.5625L245.027 30.9453L250.031 38H245.918ZM255.164 36.5938L258.562 25.3203H261.879L256.793 39.9219C256.676 40.2344 256.523 40.5742 256.336 40.9414C256.156 41.3086 255.914 41.6562 255.609 41.9844C255.305 42.3203 254.922 42.5938 254.461 42.8047C254.008 43.0156 253.457 43.1211 252.809 43.1211C252.527 43.1211 252.277 43.1016 252.059 43.0625C251.84 43.0234 251.609 42.9727 251.367 42.9102V40.5898C251.445 40.5977 251.535 40.6016 251.637 40.6016C251.746 40.6094 251.84 40.6133 251.918 40.6133C252.371 40.6133 252.746 40.5586 253.043 40.4492C253.34 40.3477 253.578 40.1797 253.758 39.9453C253.945 39.7188 254.102 39.4219 254.227 39.0547L255.164 36.5938ZM253.488 25.3203L256.359 34.6602L256.863 37.9297L254.73 38.3164L250.148 25.3203H253.488Z" fill="white"/>
<circle cx="32.5" cy="32.5" r="24.5" fill="url(#paint2_linear_1_82)"/>
<circle cx="32.4553" cy="32.4611" r="19.9432" fill="url(#paint3_linear_1_82)"/>
<defs>
<linearGradient id="paint0_linear_1_82" x1="35.5" y1="-6" x2="153" y2="181.5" gradientUnits="userSpaceOnUse">
<stop stop-color="#02A60C"/>
<stop offset="1" stop-color="#014005"/>
</linearGradient>
<linearGradient id="paint1_linear_1_82" x1="264.5" y1="160" x2="80.7393" y2="-105.435" gradientUnits="userSpaceOnUse">
<stop stop-color="#02A60C"/>
<stop offset="1" stop-color="#014005"/>
</linearGradient>
<linearGradient id="paint2_linear_1_82" x1="25.2614" y1="10.2273" x2="43.0795" y2="52.5455" gradientUnits="userSpaceOnUse">
<stop stop-color="#26AF01"/>
<stop offset="1" stop-color="#104900"/>
</linearGradient>
<linearGradient id="paint3_linear_1_82" x1="18.8888" y1="15.0776" x2="44.4777" y2="52.6443" gradientUnits="userSpaceOnUse">
<stop stop-color="#104900"/>
<stop offset="1" stop-color="#26AF01"/>
</linearGradient>
</defs>
</svg>
