<svg width="298" height="65" viewBox="0 0 298 65" fill="none" xmlns="http://www.w3.org/2000/svg">
<rect x="0.5" y="0.5" width="297" height="64" rx="32" fill="url(#paint0_linear_2009_20)" stroke="#00B100"/>
<rect x="8" y="8" width="282" height="49" rx="24.5" fill="url(#paint1_linear_2009_20)"/>
<circle cx="32.5" cy="32.5" r="24.5" fill="url(#paint2_linear_2009_20)"/>
<circle cx="32.4553" cy="32.4611" r="19.9432" fill="url(#paint3_linear_2009_20)"/>
<path d="M98.267 28.9593H97.908C96.9943 25.8483 95.1669 24.2819 92.4257 24.2602H88.5097V40.4787C88.5097 40.9791 88.6838 41.3924 89.0319 41.7188C89.38 42.0451 89.8042 42.2083 90.3046 42.2083H90.6962V42.5346H81.6242V42.2083H82.0158C82.4944 42.2083 82.9078 42.0451 83.2559 41.7188C83.6039 41.3707 83.778 40.9573 83.778 40.4787V24.9781C83.778 24.4995 83.6039 24.097 83.2559 23.7707C82.9295 23.4444 82.5162 23.2812 82.0158 23.2812H81.6242V22.9549H96.9943L98.267 28.9593Z" fill="#00B100"/>
<path d="M109.162 22.9549C111.663 22.9549 113.567 23.477 114.872 24.5212C116.069 25.4567 116.7 26.7403 116.765 28.3719C116.852 30.939 115.851 32.7882 113.763 33.9195C111.674 35.029 109.564 34.8659 107.432 33.43V33.169H107.921C108.357 33.1254 108.759 33.0275 109.129 32.8753C110.369 32.3966 111.196 31.385 111.609 29.8404C111.74 29.2748 111.794 28.7091 111.772 28.1435C111.75 26.9252 111.391 25.9788 110.695 25.3044C109.999 24.5865 109.053 24.2275 107.856 24.2275H106.388V40.4787C106.388 40.9791 106.562 41.3924 106.91 41.7188C107.236 42.0451 107.65 42.2083 108.15 42.2083H108.541V42.5346H99.5348V42.2083H99.9264C100.405 42.2083 100.818 42.0451 101.166 41.7188C101.493 41.3924 101.656 40.99 101.656 40.5114V25.0107C101.656 24.5104 101.482 24.097 101.134 23.7707C100.808 23.4444 100.394 23.2812 99.8938 23.2812H99.5022V22.9549H109.162Z" fill="#00B100"/>
<path d="M136.637 40.3808C137.225 41.5991 138.073 42.2083 139.183 42.2083H139.444V42.5346H129.85V42.2083H130.111C130.546 42.2083 130.883 42.056 131.122 41.7514C131.405 41.3816 131.438 40.9247 131.22 40.3808L129.947 37.4112H123.029L121.724 40.4461C121.528 40.9682 121.572 41.4033 121.854 41.7514C122.094 42.056 122.431 42.2083 122.866 42.2083H123.127V42.5346H116.601V42.2083H116.862C117.949 42.2083 118.776 41.6426 119.342 40.5114L126.097 26.0224C126.097 25.9788 126.14 25.8809 126.227 25.7287L126.293 25.5329L126.423 25.3044C126.597 24.8911 126.76 24.5212 126.913 24.1949C127.326 23.1507 127.554 22.4327 127.598 22.0411H127.892L136.637 40.3808ZM129.393 36.1385L126.521 29.3183L123.584 36.1385H129.393Z" fill="#00B100"/>
<path d="M159.107 34.3437L159.498 39.2713C157.997 41.7297 155.267 42.9588 151.307 42.9588C147.653 42.9371 144.781 42.0342 142.692 40.2503C140.604 38.4446 139.56 35.9428 139.56 32.7447C139.56 29.5467 140.593 27.0448 142.66 25.2392C144.748 23.4335 147.631 22.5306 151.307 22.5306C154.179 22.5306 156.627 23.031 158.65 24.0317V29.2204H158.421C157.421 25.6308 155.158 23.8359 151.634 23.8359C149.328 23.8359 147.555 24.6409 146.315 26.2508C145.118 27.7954 144.52 29.9383 144.52 32.6795C144.52 35.3989 145.118 37.5526 146.315 39.1408C147.511 40.7724 149.175 41.61 151.307 41.6535C153.635 41.6535 155.376 41.0987 156.529 39.9892C157.682 38.8797 158.465 36.9979 158.878 34.3437H159.107Z" fill="#00B100"/>
<path d="M161.412 23.2812V22.9549H170.712V23.2812H170.321C169.82 23.2812 169.385 23.4444 169.015 23.7707C168.646 24.097 168.45 24.4995 168.428 24.9781V35.5512L178.479 26.675V25.0107C178.479 24.5321 178.294 24.1188 177.924 23.7707C177.554 23.4444 177.108 23.2812 176.586 23.2812H176.195V22.9549H185.462V23.2812H185.071C184.57 23.2812 184.135 23.4444 183.765 23.7707C183.396 24.097 183.2 24.4995 183.178 24.9781V40.4787C183.2 40.9791 183.396 41.3924 183.765 41.7188C184.135 42.0451 184.57 42.2083 185.071 42.2083H185.495V42.5346H176.195V42.2083H176.586C177.108 42.2083 177.554 42.0451 177.924 41.7188C178.294 41.3707 178.479 40.9573 178.479 40.4787V29.9383L168.428 38.5208V40.4787C168.45 40.9791 168.646 41.3924 169.015 41.7188C169.385 42.0451 169.82 42.2083 170.321 42.2083H170.712V42.5346H161.445V42.2083H161.836C162.358 42.2083 162.804 42.0451 163.174 41.7188C163.544 41.3707 163.729 40.9573 163.729 40.4787V25.0107C163.729 24.5321 163.544 24.1188 163.174 23.7707C162.804 23.4444 162.358 23.2812 161.836 23.2812H161.412Z" fill="#00B100"/>
<path d="M198.786 22.5306C202.289 22.5306 205.084 23.4444 207.173 25.2718C209.305 27.121 210.371 29.612 210.371 32.7447C210.371 35.8775 209.305 38.3685 207.173 40.2177C205.084 42.0451 202.289 42.9588 198.786 42.9588C195.327 42.9588 192.542 42.0451 190.432 40.2177C188.322 38.3685 187.267 35.8775 187.267 32.7447C187.267 29.612 188.322 27.121 190.432 25.2718C192.521 23.4444 195.305 22.5306 198.786 22.5306ZM198.786 41.6535C200.788 41.6535 202.376 40.8594 203.551 39.2713C204.747 37.6614 205.345 35.4859 205.345 32.7447C205.345 30.0036 204.747 27.828 203.551 26.2181C202.376 24.63 200.788 23.8359 198.786 23.8359C196.806 23.8359 195.229 24.63 194.054 26.2181C192.858 27.828 192.26 30.0036 192.26 32.7447C192.26 35.4859 192.858 37.6614 194.054 39.2713C195.229 40.8594 196.806 41.6535 198.786 41.6535Z" fill="#00B100"/>
<path d="M234.563 23.2812C234.084 23.2812 233.671 23.4444 233.323 23.7707C232.975 24.097 232.79 24.5104 232.768 25.0107V40.5114C232.79 40.99 232.964 41.3924 233.29 41.7188C233.638 42.0451 234.063 42.2083 234.563 42.2083H234.922V42.5346H225.948V42.2083H226.274C226.775 42.2083 227.199 42.0451 227.547 41.7188C227.895 41.3924 228.069 40.9791 228.069 40.4787V33.43H219.487V40.4787C219.508 40.9791 219.693 41.3924 220.041 41.7188C220.39 42.0451 220.803 42.2083 221.282 42.2083H221.64V42.5346H212.634V42.2083H212.993C213.493 42.2083 213.917 42.0451 214.265 41.7188C214.614 41.3707 214.788 40.9573 214.788 40.4787V25.0107C214.788 24.5321 214.614 24.1188 214.265 23.7707C213.917 23.4444 213.493 23.2812 212.993 23.2812H212.634V22.9549H221.64V23.2812H221.282C220.803 23.2812 220.39 23.4444 220.041 23.7707C219.693 24.097 219.508 24.4995 219.487 24.9781V32.1247H228.069V25.0107C228.069 24.5104 227.895 24.097 227.547 23.7707C227.199 23.4444 226.775 23.2812 226.274 23.2812H225.948V22.9549H234.922V23.2812H234.563Z" fill="#00B100"/>
<path d="M255.154 40.3808C255.742 41.5991 256.59 42.2083 257.7 42.2083H257.961V42.5346H248.367V42.2083H248.628C249.063 42.2083 249.4 42.056 249.639 41.7514C249.922 41.3816 249.955 40.9247 249.737 40.3808L248.465 37.4112H241.547L240.241 40.4461C240.045 40.9682 240.089 41.4033 240.372 41.7514C240.611 42.056 240.948 42.2083 241.383 42.2083H241.644V42.5346H235.118V42.2083H235.379C236.467 42.2083 237.293 41.6426 237.859 40.5114L244.614 26.0224C244.614 25.9788 244.658 25.8809 244.745 25.7287L244.81 25.5329L244.94 25.3044C245.114 24.8911 245.278 24.5212 245.43 24.1949C245.843 23.1507 246.072 22.4327 246.115 22.0411H246.409L255.154 40.3808ZM247.91 36.1385L245.038 29.3183L242.101 36.1385H247.91Z" fill="#00B100"/>
<defs>
<linearGradient id="paint0_linear_2009_20" x1="80.5" y1="-26.5" x2="321" y2="191" gradientUnits="userSpaceOnUse">
<stop offset="0.151068" stop-color="white"/>
<stop offset="1" stop-color="#C0C0C0"/>
</linearGradient>
<linearGradient id="paint1_linear_2009_20" x1="184" y1="164.5" x2="57.2935" y2="-55.4026" gradientUnits="userSpaceOnUse">
<stop offset="0.271248" stop-color="white"/>
<stop offset="1" stop-color="#C0C0C0"/>
</linearGradient>
<linearGradient id="paint2_linear_2009_20" x1="25.2614" y1="10.2273" x2="43.0795" y2="52.5455" gradientUnits="userSpaceOnUse">
<stop stop-color="#26AF01"/>
<stop offset="1" stop-color="#104900"/>
</linearGradient>
<linearGradient id="paint3_linear_2009_20" x1="18.8888" y1="15.0776" x2="44.4777" y2="52.6443" gradientUnits="userSpaceOnUse">
<stop stop-color="#104900"/>
<stop offset="1" stop-color="#26AF01"/>
</linearGradient>
</defs>
</svg>
