<svg width="65" height="65" viewBox="0 0 65 65" fill="none" xmlns="http://www.w3.org/2000/svg">
<circle cx="32.5" cy="32.5" r="32.5" fill="url(#paint0_linear_1_76)"/>
<circle cx="32.441" cy="32.4485" r="26.4553" fill="url(#paint1_linear_1_76)"/>
<path d="M34.3419 58.8715L24.53 33.5241L26.1653 32.7064V29.4358L27.8006 21.2592L58.8717 34.3417L58.6514 37.2053C57.8246 47.9536 49.6436 56.6856 38.9718 58.2101L34.3419 58.8715Z" fill="url(#paint2_linear_1_76)"/>
<path d="M41.6097 32.6747C41.6097 30.2013 40.7461 28.1034 39.0189 26.3809C37.2916 24.6584 35.1874 23.7968 32.7063 23.7959V21.2592C34.2962 21.2592 35.7856 21.5606 37.1746 22.1635C38.5635 22.7664 39.7718 23.5803 40.7995 24.6052C41.8272 25.63 42.6434 26.835 43.248 28.2201C43.8526 29.6052 44.1544 31.09 44.1536 32.6747H41.6097ZM36.5221 32.6747C36.5221 31.6177 36.1511 30.7193 35.4092 29.9794C34.6672 29.2395 33.7663 28.8695 32.7063 28.8695V26.3327C34.4658 26.3327 35.9658 26.9513 37.2064 28.1884C38.4469 29.4255 39.0668 30.9209 39.0659 32.6747H36.5221ZM42.8181 44.1536C40.1682 44.1536 37.5502 43.5778 34.964 42.4261C32.3778 41.2744 30.0247 39.6411 27.9049 37.5263C25.785 35.4115 24.1476 33.0649 22.9927 30.4867C21.8378 27.9085 21.2599 25.2977 21.2591 22.6544C21.2591 22.2739 21.3863 21.9568 21.6407 21.7031C21.8951 21.4494 22.213 21.3226 22.5946 21.3226H27.7459C28.0426 21.3226 28.3076 21.4232 28.5408 21.6245C28.774 21.8257 28.9118 22.0633 28.9542 22.3373L29.7809 26.7767C29.8233 27.1149 29.8127 27.4003 29.7491 27.6328C29.6855 27.8654 29.5689 28.0662 29.3994 28.2353L26.315 31.3429C26.7389 32.1251 27.2422 32.8806 27.8247 33.6095C28.4073 34.3384 29.0487 35.0415 29.7491 35.7188C30.4063 36.3742 31.0952 36.9822 31.816 37.5428C32.5367 38.1034 33.2999 38.6158 34.1054 39.0801L37.0944 36.0993C37.2852 35.9091 37.5345 35.7666 37.8423 35.6719C38.1501 35.5772 38.452 35.5506 38.7479 35.592L43.136 36.4799C43.4328 36.5644 43.6766 36.7179 43.8674 36.9403C44.0582 37.1627 44.1536 37.4109 44.1536 37.6848V42.8218C44.1536 43.2023 44.0264 43.5194 43.772 43.7731C43.5176 44.0268 43.1996 44.1536 42.8181 44.1536Z" fill="white"/>
<defs>
<linearGradient id="paint0_linear_1_76" x1="22.8977" y1="2.95455" x2="46.5341" y2="59.0909" gradientUnits="userSpaceOnUse">
<stop stop-color="#26AF01"/>
<stop offset="1" stop-color="#104900"/>
</linearGradient>
<linearGradient id="paint1_linear_1_76" x1="14.4446" y1="9.38881" x2="48.3891" y2="59.2221" gradientUnits="userSpaceOnUse">
<stop stop-color="#104900"/>
<stop offset="1" stop-color="#26AF01"/>
</linearGradient>
<linearGradient id="paint2_linear_1_76" x1="40.8832" y1="39.2477" x2="55.601" y2="56.4185" gradientUnits="userSpaceOnUse">
<stop stop-color="#114F01" stop-opacity="0.6"/>
<stop offset="1" stop-color="#02A60C" stop-opacity="0.21"/>
</linearGradient>
</defs>
</svg>
